<svg width="78" height="59" viewBox="0 0 78 59" fill="none" xmlns="http://www.w3.org/2000/svg">
<path d="M7.2 12.816V14.08H5.744V12.816C4.144 12.6987 2.85867 12.2613 1.888 11.504C0.928 10.736 0.448 9.70133 0.448 8.4C0.448 7.09867 0.928 6.064 1.888 5.296C2.85867 4.53867 4.144 4.10133 5.744 3.984V2.72H7.2V3.984C8.82133 4.10133 10.1067 4.53867 11.056 5.296C12.0267 6.064 12.512 7.09867 12.512 8.4C12.512 9.70133 12.0267 10.736 11.056 11.504C10.1067 12.2613 8.82133 12.6987 7.2 12.816ZM7.2 5.344V11.456C8.42667 11.3707 9.37067 11.072 10.032 10.56C10.6933 10.0373 11.024 9.31733 11.024 8.4C11.024 7.48267 10.6933 6.768 10.032 6.256C9.37067 5.73333 8.42667 5.42933 7.2 5.344ZM2.912 6.256C2.25067 6.768 1.92 7.48267 1.92 8.4C1.92 9.31733 2.25067 10.032 2.912 10.544C3.57333 11.056 4.51733 11.3547 5.744 11.44V5.344C4.51733 5.42933 3.57333 5.73333 2.912 6.256ZM13.5455 8.4C13.5455 6.77867 14.1055 5.408 15.2255 4.288C16.3455 3.15733 17.7162 2.592 19.3375 2.592C20.9588 2.592 22.3295 3.15733 23.4495 4.288C24.5802 5.408 25.1455 6.77867 25.1455 8.4C25.1455 10.0107 24.5802 11.3813 23.4495 12.512C22.3295 13.6427 20.9588 14.208 19.3375 14.208C17.7162 14.208 16.3455 13.6427 15.2255 12.512C14.1055 11.3707 13.5455 10 13.5455 8.4ZM23.6575 8.4C23.6575 7.16267 23.2415 6.128 22.4095 5.296C21.5988 4.45333 20.5748 4.032 19.3375 4.032C18.1108 4.032 17.0815 4.45333 16.2495 5.296C15.4282 6.13867 15.0175 7.17333 15.0175 8.4C15.0175 9.616 15.4282 10.6507 16.2495 11.504C17.0815 12.336 18.1108 12.752 19.3375 12.752C20.5748 12.752 21.5988 12.336 22.4095 11.504C23.2415 10.6507 23.6575 9.616 23.6575 8.4ZM33.8624 7.552V2.8H35.3344V14H33.8624V8.96H28.4224V14H26.9344V2.8H28.4224V7.552H33.8624ZM45.9392 2.8V12.592H47.1393V16.144H45.6513V14H38.2593V16.144H36.7713V12.592H37.7473C38.4406 11.7173 38.7873 10.4053 38.7873 8.656V2.8H45.9392ZM39.4273 12.592H44.4513V4.192H40.2753V8.688C40.2753 10.3733 39.9926 11.6747 39.4273 12.592Z" fill="white"/>
<line x1="50" y1="3.35" x2="76" y2="3.35" stroke="white" stroke-width="1.3"/>
<line x1="50" y1="13.35" x2="76" y2="13.35" stroke="white" stroke-width="1.3"/>
<line x1="50" y1="8.35" x2="76" y2="8.35" stroke="white" stroke-width="1.3"/>
<path d="M1.2 22.8H5.264C6.288 22.8 7.14667 23.1467 7.84 23.84C8.53333 24.5333 8.88 25.3867 8.88 26.4C8.88 27.4133 8.53333 28.2667 7.84 28.96C7.14667 29.6533 6.288 30 5.264 30H2.688V34H1.2V22.8ZM2.688 28.608H5.264C5.89333 28.608 6.40533 28.4 6.8 27.984C7.20533 27.5467 7.408 27.0187 7.408 26.4C7.408 25.76 7.20533 25.232 6.8 24.816C6.39467 24.4 5.88267 24.192 5.264 24.192H2.688V28.608ZM18.4569 34H16.8729L15.9609 31.488H10.9209L10.0089 34H8.42488L12.6009 22.8H14.2809L18.4569 34ZM13.4329 24.576L11.4329 30.096H15.4489L13.4329 24.576ZM25.2181 28.208C26.4341 28.7307 27.0421 29.6427 27.0421 30.944C27.0421 31.904 26.6795 32.688 25.9541 33.296C25.2395 33.904 24.2901 34.208 23.1061 34.208C22.0608 34.208 21.2021 33.9787 20.5301 33.52C19.8688 33.0613 19.3995 32.432 19.1221 31.632L20.3861 30.912C20.7168 32.1707 21.6235 32.8 23.1061 32.8C23.8741 32.8 24.4715 32.6293 24.8981 32.288C25.3355 31.9467 25.5541 31.4827 25.5541 30.896C25.5541 30.3093 25.3515 29.8453 24.9461 29.504C24.5408 29.152 23.9861 28.976 23.2821 28.976H21.9701V27.616H22.9141C23.5861 27.616 24.1248 27.4507 24.5301 27.12C24.9461 26.7787 25.1541 26.336 25.1541 25.792C25.1541 25.248 24.9621 24.8107 24.5781 24.48C24.1941 24.1493 23.6715 23.984 23.0101 23.984C21.7728 23.984 20.9461 24.5333 20.5301 25.632L19.2821 24.912C19.9541 23.3653 21.1968 22.592 23.0101 22.592C24.0875 22.592 24.9568 22.8907 25.6181 23.488C26.2901 24.0747 26.6261 24.832 26.6261 25.76C26.6261 26.8373 26.1568 27.6533 25.2181 28.208ZM35.2094 28.192C35.732 28.448 36.1427 28.8053 36.4414 29.264C36.74 29.7227 36.8894 30.2453 36.8894 30.832C36.8894 31.728 36.5747 32.48 35.9454 33.088C35.316 33.696 34.548 34 33.6414 34H28.8094V22.8H33.2894C34.1747 22.8 34.916 23.0933 35.5134 23.68C36.1214 24.2667 36.4254 24.992 36.4254 25.856C36.4254 26.8587 36.02 27.6373 35.2094 28.192ZM33.2894 24.192H30.2974V27.616H33.2894C33.7587 27.616 34.1534 27.4507 34.4734 27.12C34.7934 26.7893 34.9534 26.384 34.9534 25.904C34.9534 25.4347 34.788 25.0347 34.4574 24.704C34.1374 24.3627 33.748 24.192 33.2894 24.192ZM30.2974 32.608H33.6414C34.1427 32.608 34.564 32.432 34.9054 32.08C35.2467 31.728 35.4174 31.296 35.4174 30.784C35.4174 30.2827 35.2414 29.856 34.8894 29.504C34.5587 29.152 34.1427 28.976 33.6414 28.976H30.2974V32.608ZM47.1011 34H45.6131V25.648L39.8531 34H38.6531V22.8H40.1411V31.168L45.9011 22.8H47.1011V34ZM48.5849 22.8H56.6649V24.208H53.3529V34H51.8809V24.208H48.5849V22.8ZM66.5855 34H65.0975V25.648L59.3375 34H58.1375V22.8H59.6255V31.168L65.3855 22.8H66.5855V34ZM72.0373 22.8H76.5173V34H75.0453V29.712H72.8213L69.9253 34H68.2453L71.2213 29.616C70.4533 29.4453 69.8186 29.04 69.3173 28.4C68.8159 27.7707 68.5653 27.0613 68.5653 26.272C68.5653 25.312 68.9013 24.496 69.5733 23.824C70.2559 23.1413 71.0773 22.8 72.0373 22.8ZM72.0373 28.368H75.0453V24.192H72.0373C71.5039 24.192 71.0346 24.3947 70.6293 24.8C70.2346 25.1947 70.0373 25.6853 70.0373 26.272C70.0373 26.8587 70.2346 27.3547 70.6293 27.76C71.0346 28.1653 71.5039 28.368 72.0373 28.368Z" fill="white"/>
<path d="M1.2 54V42.8H2.688V54H1.2ZM4.17863 42.8H12.2586V44.208H8.94663V54H7.47463V44.208H4.17863V42.8Z" fill="white"/>
<line x1="15" y1="43.35" x2="76" y2="43.35" stroke="white" stroke-width="1.3"/>
<line x1="15" y1="53.35" x2="76" y2="53.35" stroke="white" stroke-width="1.3"/>
<line x1="15" y1="48.35" x2="76" y2="48.35" stroke="white" stroke-width="1.3"/>
</svg>
