<svg width="50" height="38" viewBox="0 0 50 38" fill="none" xmlns="http://www.w3.org/2000/svg">
<path d="M4.4389 34.7243C1.55067 31.6847 0 28.2756 0 22.7494C0 13.0251 6.88969 4.30928 16.9088 0L19.4128 3.82862C10.0611 8.84083 8.23285 15.345 7.50379 19.4459C9.00959 18.6735 10.9809 18.404 12.9129 18.5819C17.9715 19.0458 21.959 23.1606 21.959 28.2756C21.959 30.8547 20.9249 33.3281 19.0844 35.1518C17.2438 36.9755 14.7475 38 12.1446 38C9.13577 38 6.25876 36.6386 4.4389 34.7243ZM32.48 34.7243C29.5917 31.6847 28.0411 28.2756 28.0411 22.7494C28.0411 13.0251 34.9307 4.30928 44.9498 0L47.4539 3.82862C38.1022 8.84083 36.2739 15.345 35.5448 19.4459C37.0506 18.6735 39.0219 18.404 40.954 18.5819C46.0126 19.0458 50 23.1606 50 28.2756C50 30.8547 48.966 33.3281 47.1254 35.1518C45.2849 36.9755 42.7886 38 40.1856 38C37.1768 38 34.2998 36.6386 32.48 34.7243Z" fill="white"/>
</svg>
