<svg width="330" height="47" viewBox="0 0 330 47" fill="none" xmlns="http://www.w3.org/2000/svg">
<g clip-path="url(#clip0_680_3782)">
<path d="M8.62684 0.790039C6.43495 0.790039 4.33282 1.65096 2.78292 3.1834C1.23303 4.71585 0.362305 6.7943 0.362305 8.96151V24.1686C0.362305 25.2417 0.576073 26.3044 0.991404 27.2957C1.40674 28.2871 2.0155 29.1879 2.78292 29.9468C4.33282 31.4792 6.43495 32.3401 8.62684 32.3401H23.6013C24.0705 33.979 25.1329 35.39 26.586 36.3047C28.0392 37.2193 29.7818 37.5737 31.4821 37.3004C33.1824 37.0271 34.7217 36.1453 35.8072 34.8227C36.8925 33.5 37.4483 31.829 37.3683 30.1276C37.2885 28.4262 36.5788 26.8132 35.3741 25.5956C34.1695 24.378 32.5542 23.6409 30.8357 23.5245C29.117 23.4082 27.4151 23.9205 26.0538 24.9643C24.6926 26.0081 23.7669 27.5104 23.4532 29.1851H8.62684C7.28123 29.1851 5.99075 28.6566 5.03926 27.7158C4.08778 26.775 3.55325 25.4991 3.55325 24.1686V8.96151C3.55325 7.63106 4.08778 6.35511 5.03926 5.41433C5.99075 4.47356 7.28123 3.94505 8.62684 3.94505H24.0071C25.3527 3.94505 26.6432 4.47356 27.5947 5.41433C28.5462 6.35511 29.0807 7.63106 29.0807 8.96151V9.30856C29.0807 9.72694 29.2488 10.1282 29.5481 10.424C29.8473 10.7199 30.253 10.8861 30.6762 10.8861C31.0993 10.8861 31.5052 10.7199 31.8044 10.424C32.1036 10.1282 32.2717 9.72694 32.2717 9.30856V8.96151C32.2717 7.88842 32.0579 6.82583 31.6425 5.83442C31.2273 4.84301 30.6184 3.9422 29.8511 3.1834C29.0836 2.42462 28.1726 1.82271 27.1698 1.41205C26.1672 1.0014 25.0924 0.790039 24.0071 0.790039H8.62684ZM14.4024 38.3347V37.7036C14.4024 37.2852 14.5706 36.884 14.8697 36.5882C15.169 36.2923 15.5748 36.1261 15.9979 36.1261C16.4211 36.1261 16.8268 36.2923 17.1261 36.5882C17.4253 36.884 17.5934 37.2852 17.5934 37.7036V38.3347C17.5934 39.5897 18.0977 40.7935 18.9953 41.681C19.8929 42.5685 21.1103 43.0671 22.3798 43.0671H38.3345C39.6039 43.0671 40.8213 42.5685 41.7189 41.681C42.6166 40.7935 43.1208 39.5897 43.1208 38.3347V22.5596C43.1208 21.3044 42.6166 20.1007 41.7189 19.2132C40.8213 18.3257 39.6039 17.8271 38.3345 17.8271H23.2222C22.9003 19.5266 21.9487 21.0463 20.5536 22.0887C19.1584 23.1313 17.42 23.6215 15.6785 23.4637C13.9371 23.3058 12.3178 22.5114 11.1375 21.2354C9.95727 19.9595 9.30094 18.2941 9.29693 16.5651C9.2953 14.8885 9.90742 13.2682 11.0202 12.0032C12.133 10.7382 13.6712 9.91422 15.3507 9.68344C17.0301 9.45267 18.7373 9.8307 20.1568 10.7477C21.5763 11.6647 22.6121 13.0586 23.0728 14.672H38.3345C40.4501 14.672 42.4793 15.5031 43.9753 16.9823C45.4714 18.4614 46.3118 20.4677 46.3118 22.5596V38.3347C46.3118 40.4265 45.4714 42.4328 43.9753 43.9119C42.4793 45.3912 40.4501 46.2221 38.3345 46.2221H22.3798C20.2641 46.2221 18.2349 45.3912 16.7389 43.9119C15.2429 42.4328 14.4024 40.4265 14.4024 38.3347Z" fill="#6200EE"/>
<path d="M66.0475 14.1307C62.5606 14.1307 60.0201 16.1378 60.0201 19.2138C60.0201 21.9508 61.5145 23.5148 65.2505 24.74C67.8657 25.5741 68.5382 26.1998 68.5382 27.6334C68.5382 29.2235 67.3427 30.1098 65.5743 30.1098C63.8059 30.1098 62.4361 29.4321 61.1658 28.3112L59.2979 30.4748C60.7175 31.9345 62.8097 33.0033 65.6739 33.0033C69.8582 33.0033 72.3489 30.6833 72.3489 27.3728C72.3489 24.0362 70.3564 22.6807 67.2431 21.638C64.4286 20.7257 63.781 20.2043 63.781 18.9531C63.781 17.6758 64.8022 16.9981 66.2966 16.9981C67.6914 16.9981 68.8869 17.4673 70.1073 18.51L71.8508 16.3985C70.3564 14.9388 68.6129 14.1307 66.0475 14.1307ZM81.8717 29.5885C81.3238 29.9013 80.8505 30.0577 80.3773 30.0577C79.4807 30.0577 79.0573 29.5363 79.0573 28.1809V21.3773H81.7472L82.0959 18.7706H79.0573V15.3037L75.5205 15.7468V18.7706H73.5529V21.3773H75.5205V28.2591C75.5205 31.335 76.9153 32.9772 79.655 33.0033C80.8256 33.0033 82.1208 32.6383 83.0921 31.9345L81.8717 29.5885ZM95.0201 28.7543V23.176C95.0201 20.0479 93.451 18.3535 89.7897 18.3535C88.2953 18.3535 86.5519 18.6924 84.9081 19.3702L85.7051 21.8465C87.05 21.3773 88.3203 21.1167 89.192 21.1167C90.8607 21.1167 91.5581 21.6641 91.5581 23.3845V24.0622H90.0388C86.1285 24.0622 83.9616 25.7045 83.9616 28.7283C83.9616 31.2307 85.6054 33.0033 88.2455 33.0033C89.8146 33.0033 91.2592 32.4298 92.2057 30.9179C92.7536 32.2995 93.7499 32.8208 95.2443 32.9511L95.9915 30.5008C95.3439 30.2662 95.0201 29.8752 95.0201 28.7543ZM89.2169 30.3444C88.121 30.3444 87.5232 29.6406 87.5232 28.4155C87.5232 26.9036 88.4697 26.1737 90.3875 26.1737H91.5581V28.8065C91.0102 29.797 90.2381 30.3444 89.2169 30.3444ZM105.725 18.3796C104.205 18.3796 102.91 19.5266 102.287 21.4555L101.989 18.7706H98.9001V32.5862H102.437V25.522C102.885 23.2542 103.657 21.9769 105.276 21.9769C105.725 21.9769 106.048 22.0551 106.472 22.1593L107.045 18.5882C106.621 18.4578 106.198 18.3796 105.725 18.3796ZM115.896 29.5885C115.348 29.9013 114.875 30.0577 114.401 30.0577C113.505 30.0577 113.082 29.5363 113.082 28.1809V21.3773H115.771L116.12 18.7706H113.082V15.3037L109.545 15.7468V18.7706H107.577V21.3773H109.545V28.2591C109.545 31.335 110.94 32.9772 113.679 33.0033C114.85 33.0033 116.145 32.6383 117.116 31.9345L115.896 29.5885ZM129.814 18.7706H126.277V28.4415C125.655 29.5624 124.833 30.2402 123.861 30.2402C122.89 30.2402 122.417 29.7449 122.417 28.233V18.7706H118.88V28.7022C118.88 31.361 120.125 33.0033 122.566 33.0033C124.335 33.0033 125.605 32.2734 126.576 30.7354L126.751 32.5862H129.814V18.7706ZM140.754 18.3535C139.409 18.3535 137.989 18.9531 136.943 20.3607L136.744 18.7706H133.63V38.321L137.167 37.9039V31.5174C137.989 32.508 139.11 33.0033 140.455 33.0033C143.743 33.0033 145.685 29.8752 145.685 25.6523C145.685 21.1949 144.191 18.3535 140.754 18.3535ZM139.409 30.2402C138.487 30.2402 137.74 29.797 137.167 28.8847V22.8892C137.79 21.8205 138.637 21.0906 139.683 21.0906C141.127 21.0906 141.999 22.2115 141.999 25.6784C141.999 28.9107 141.028 30.2402 139.409 30.2402ZM162.118 14.1307C157.784 14.1307 154.447 17.4673 154.447 23.5409C154.447 29.6927 157.585 33.0033 162.193 33.0033C164.559 33.0033 166.377 31.9085 167.473 30.7354L165.779 28.5197C164.783 29.3278 163.762 29.9795 162.342 29.9795C159.951 29.9795 158.307 28.0766 158.307 23.5409C158.307 18.8488 160.001 17.0241 162.317 17.0241C163.488 17.0241 164.484 17.4673 165.455 18.3014L167.274 16.0857C165.829 14.8345 164.359 14.1307 162.118 14.1307ZM180.541 25.3656C180.541 20.9603 178.324 18.3535 174.588 18.3535C170.728 18.3535 168.586 21.5859 168.586 25.7566C168.586 30.0838 170.802 33.0033 175.037 33.0033C177.104 33.0033 178.748 32.2213 180.043 31.1264L178.573 29.0411C177.428 29.8752 176.481 30.2402 175.36 30.2402C173.667 30.2402 172.471 29.4581 172.222 26.7993H180.466C180.491 26.4083 180.541 25.8348 180.541 25.3656ZM177.029 24.4793H172.222C172.396 21.8726 173.268 20.8821 174.663 20.8821C176.357 20.8821 177.029 22.2375 177.029 24.3229V24.4793ZM190.844 18.3535C189.176 18.3535 187.88 19.1356 186.834 20.5171L186.56 18.7706H183.472V32.5862H187.009V23.0456C187.756 21.8205 188.553 21.1167 189.574 21.1167C190.446 21.1167 191.019 21.5598 191.019 23.1499V32.5862H194.555V22.5243C194.555 19.9176 193.161 18.3535 190.844 18.3535ZM204.919 29.5885C204.371 29.9013 203.898 30.0577 203.424 30.0577C202.528 30.0577 202.104 29.5363 202.104 28.1809V21.3773H204.794L205.143 18.7706H202.104V15.3037L198.568 15.7468V18.7706H196.6V21.3773H198.568V28.2591C198.568 31.335 199.962 32.9772 202.702 33.0033C203.873 33.0033 205.168 32.6383 206.139 31.9345L204.919 29.5885ZM214.876 18.3796C213.356 18.3796 212.061 19.5266 211.439 21.4555L211.14 18.7706H208.051V32.5862H211.588V25.522C212.036 23.2542 212.808 21.9769 214.427 21.9769C214.876 21.9769 215.2 22.0551 215.623 22.1593L216.196 18.5882C215.772 18.4578 215.349 18.3796 214.876 18.3796ZM227.827 28.7543V23.176C227.827 20.0479 226.258 18.3535 222.597 18.3535C221.102 18.3535 219.359 18.6924 217.715 19.3702L218.512 21.8465C219.857 21.3773 221.127 21.1167 221.999 21.1167C223.668 21.1167 224.365 21.6641 224.365 23.3845V24.0622H222.846C218.936 24.0622 216.769 25.7045 216.769 28.7283C216.769 31.2307 218.412 33.0033 221.053 33.0033C222.622 33.0033 224.066 32.4298 225.013 30.9179C225.561 32.2995 226.557 32.8208 228.051 32.9511L228.799 30.5008C228.151 30.2662 227.827 29.8752 227.827 28.7543ZM222.024 30.3444C220.928 30.3444 220.33 29.6406 220.33 28.4155C220.33 26.9036 221.277 26.1737 223.195 26.1737H224.365V28.8065C223.817 29.797 223.045 30.3444 222.024 30.3444ZM234.8 33.0033C235.697 33.0033 236.494 32.7947 237.066 32.5341L236.344 29.9013C236.145 30.0056 235.921 30.0577 235.647 30.0577C235.124 30.0577 234.924 29.7449 234.924 29.1453V12.8534L231.388 13.2705V29.2496C231.388 31.6478 232.658 33.0033 234.8 33.0033ZM256.24 14.5477H245.953V32.5862H256.29V29.771H249.615V24.7921H255.044V22.029H249.615V17.3369H255.841L256.24 14.5477ZM269.804 18.7706H266.267V28.4415C265.644 29.5624 264.822 30.2402 263.851 30.2402C262.88 30.2402 262.407 29.7449 262.407 28.233V18.7706H258.87V28.7022C258.87 31.361 260.115 33.0033 262.556 33.0033C264.324 33.0033 265.595 32.2734 266.566 30.7354L266.74 32.5862H269.804V18.7706ZM280.445 18.3796C278.925 18.3796 277.63 19.5266 277.007 21.4555L276.709 18.7706H273.62V32.5862H277.157V25.522C277.605 23.2542 278.377 21.9769 279.996 21.9769C280.445 21.9769 280.768 22.0551 281.192 22.1593L281.765 18.5882C281.341 18.4578 280.918 18.3796 280.445 18.3796ZM293.396 28.7543V23.176C293.396 20.0479 291.827 18.3535 288.166 18.3535C286.671 18.3535 284.928 18.6924 283.284 19.3702L284.081 21.8465C285.426 21.3773 286.696 21.1167 287.568 21.1167C289.237 21.1167 289.934 21.6641 289.934 23.3845V24.0622H288.415C284.504 24.0622 282.337 25.7045 282.337 28.7283C282.337 31.2307 283.981 33.0033 286.621 33.0033C288.191 33.0033 289.635 32.4298 290.582 30.9179C291.13 32.2995 292.126 32.8208 293.62 32.9511L294.367 30.5008C293.72 30.2662 293.396 29.8752 293.396 28.7543ZM287.593 30.3444C286.497 30.3444 285.899 29.6406 285.899 28.4155C285.899 26.9036 286.846 26.1737 288.763 26.1737H289.934V28.8065C289.386 29.797 288.614 30.3444 287.593 30.3444ZM301.709 18.3535C298.521 18.3535 296.479 20.1261 296.479 22.4722C296.479 24.5575 297.724 25.9391 300.389 26.7211C302.83 27.4249 303.303 27.7638 303.303 28.8065C303.303 29.7449 302.456 30.3184 301.136 30.3184C299.816 30.3184 298.596 29.7709 297.6 28.9629L295.856 30.9961C297.101 32.1952 298.945 33.0033 301.236 33.0033C304.374 33.0033 306.94 31.3871 306.94 28.5197C306.94 26.0694 305.445 24.9225 302.805 24.1665C300.489 23.4627 300.04 23.0978 300.04 22.2897C300.04 21.5337 300.688 21.0385 301.859 21.0385C303.004 21.0385 304.075 21.4295 305.146 22.1333L306.491 20.0218C305.246 18.9792 303.627 18.3535 301.709 18.3535ZM311.31 11.6543C310.039 11.6543 309.168 12.5927 309.168 13.8179C309.168 15.043 310.039 15.9814 311.31 15.9814C312.58 15.9814 313.476 15.043 313.476 13.8179C313.476 12.5927 312.58 11.6543 311.31 11.6543ZM313.078 18.7706H309.541V32.5862H313.078V18.7706ZM327.031 28.7543V23.176C327.031 20.0479 325.462 18.3535 321.801 18.3535C320.306 18.3535 318.563 18.6924 316.919 19.3702L317.716 21.8465C319.061 21.3773 320.331 21.1167 321.203 21.1167C322.872 21.1167 323.569 21.6641 323.569 23.3845V24.0622H322.05C318.14 24.0622 315.973 25.7045 315.973 28.7283C315.973 31.2307 317.617 33.0033 320.257 33.0033C321.826 33.0033 323.27 32.4298 324.217 30.9179C324.765 32.2995 325.761 32.8208 327.255 32.9511L328.003 30.5008C327.355 30.2662 327.031 29.8752 327.031 28.7543ZM321.228 30.3444C320.132 30.3444 319.534 29.6406 319.534 28.4155C319.534 26.9036 320.481 26.1737 322.399 26.1737H323.569V28.8065C323.021 29.797 322.249 30.3444 321.228 30.3444Z" fill="#3700B3"/>
</g>
<defs>
<clipPath id="clip0_680_3782">
<rect width="329.638" height="45.4321" fill="white" transform="translate(0.362305 0.790039)"/>
</clipPath>
</defs>
</svg>
