<svg width="24" height="24" viewBox="0 0 24 24" fill="none" xmlns="http://www.w3.org/2000/svg">
<path d="M12 2.625C10.1458 2.625 8.33324 3.17483 6.79153 4.20497C5.24982 5.23511 4.04821 6.69929 3.33863 8.41234C2.62906 10.1254 2.44341 12.0104 2.80514 13.829C3.16688 15.6475 4.05976 17.318 5.37088 18.6291C6.682 19.9402 8.35246 20.8331 10.171 21.1949C11.9896 21.5566 13.8746 21.3709 15.5877 20.6614C17.3007 19.9518 18.7649 18.7502 19.795 17.2085C20.8252 15.6668 21.375 13.8542 21.375 12C21.3722 9.51446 20.3836 7.13152 18.626 5.37397C16.8685 3.61642 14.4855 2.6278 12 2.625ZM12 20.625C10.2941 20.625 8.62658 20.1192 7.20821 19.1714C5.78984 18.2237 4.68435 16.8767 4.03154 15.3006C3.37874 13.7246 3.20793 11.9904 3.54073 10.3173C3.87353 8.64426 4.69498 7.10743 5.90121 5.9012C7.10744 4.69498 8.64426 3.87352 10.3174 3.54073C11.9904 3.20793 13.7246 3.37873 15.3006 4.03154C16.8767 4.68434 18.2237 5.78983 19.1714 7.20821C20.1192 8.62658 20.625 10.2941 20.625 12C20.6224 14.2867 19.7129 16.479 18.0959 18.0959C16.479 19.7129 14.2867 20.6224 12 20.625ZM8.62528 11.9995C8.62531 12.7079 8.84819 13.3982 9.26236 13.9729C9.67653 14.5475 10.261 14.9773 10.933 15.2013C11.6049 15.4253 12.3303 15.4323 13.0065 15.2211C13.6826 15.01 14.2752 14.5915 14.7003 14.0249C14.76 13.9455 14.8489 13.893 14.9473 13.8791C15.0458 13.8651 15.1457 13.8909 15.2252 13.9506C15.3046 14.0103 15.3572 14.0991 15.3712 14.1975C15.3852 14.2959 15.3596 14.3959 15.2999 14.4754C14.7803 15.1678 14.0561 15.6792 13.2298 15.9371C12.4034 16.1951 11.5169 16.1865 10.6957 15.9126C9.87445 15.6388 9.16022 15.1135 8.6541 14.4112C8.14799 13.7089 7.87564 12.8652 7.87564 11.9995C7.87564 11.1339 8.14799 10.2901 8.6541 9.58783C9.16022 8.88553 9.87445 8.36026 10.6957 8.0864C11.5169 7.81254 12.4034 7.80398 13.2298 8.06192C14.0561 8.31987 14.7803 8.83125 15.2999 9.52364C15.3295 9.56301 15.3511 9.60783 15.3633 9.65553C15.3756 9.70323 15.3783 9.75287 15.3714 9.80164C15.3645 9.8504 15.348 9.89732 15.323 9.93972C15.2979 9.98212 15.2648 10.0192 15.2254 10.0488C15.186 10.0783 15.1412 10.0999 15.0935 10.1122C15.0458 10.1244 14.9961 10.1272 14.9474 10.1202C14.8986 10.1133 14.8517 10.0969 14.8093 10.0718C14.7669 10.0467 14.7298 10.0136 14.7003 9.97421C14.2752 9.40761 13.6826 8.9891 13.0065 8.77797C12.3303 8.56683 11.6049 8.57377 10.933 8.7978C10.261 9.02183 9.67653 9.45159 9.26236 10.0262C8.84819 10.6008 8.62531 11.2912 8.62528 11.9995Z" fill="white"/>
</svg>
